<mxfile host="app.diagrams.net" agent="Mozilla/5.0 (X11; Linux x86_64; rv:127.0) Gecko/20100101 Firefox/127.0" version="24.7.6">
  <diagram name="Page-1" id="L-hL2gHEZ7_4oHkiqKK_">
    <mxGraphModel grid="1" page="1" gridSize="10" guides="1" tooltips="1" connect="1" arrows="1" fold="1" pageScale="1" pageWidth="827" pageHeight="1169" math="0" shadow="0">
      <root>
        <mxCell id="0" />
        <mxCell id="1" parent="0" />
        <mxCell id="BDC5LwxAOOQD8yFH_idv-1" value="OCSP Response SEQENCE" style="html=1;dashed=0;whiteSpace=wrap;shape=mxgraph.dfd.start" vertex="1" parent="1">
          <mxGeometry x="334" y="40" width="166" height="40" as="geometry" />
        </mxCell>
        <mxCell id="BDC5LwxAOOQD8yFH_idv-2" value="OCSPResponseStatus :ENUM" style="html=1;dashed=0;whiteSpace=wrap;shape=mxgraph.dfd.start" vertex="1" parent="1">
          <mxGeometry x="150" y="100" width="180" height="40" as="geometry" />
        </mxCell>
        <mxCell id="BDC5LwxAOOQD8yFH_idv-3" value="" style="endArrow=classic;html=1;rounded=0;exitX=0;exitY=0;exitDx=5.859999999999999;exitDy=34.14;exitPerimeter=0;entryX=0.5;entryY=0.5;entryDx=0;entryDy=-20;entryPerimeter=0;" edge="1" parent="1" source="BDC5LwxAOOQD8yFH_idv-1" target="BDC5LwxAOOQD8yFH_idv-2">
          <mxGeometry width="50" height="50" relative="1" as="geometry">
            <mxPoint x="390" y="450" as="sourcePoint" />
            <mxPoint x="440" y="400" as="targetPoint" />
          </mxGeometry>
        </mxCell>
        <mxCell id="BDC5LwxAOOQD8yFH_idv-4" value="ResponseBytes :SEQUENCE" style="html=1;dashed=0;whiteSpace=wrap;shape=mxgraph.dfd.start" vertex="1" parent="1">
          <mxGeometry x="403" y="100" width="200" height="30" as="geometry" />
        </mxCell>
        <mxCell id="BDC5LwxAOOQD8yFH_idv-5" value="" style="endArrow=classic;html=1;rounded=0;exitX=0;exitY=0;exitDx=160.14;exitDy=34.14;exitPerimeter=0;entryX=0.5;entryY=0.5;entryDx=0;entryDy=-15;entryPerimeter=0;" edge="1" parent="1" source="BDC5LwxAOOQD8yFH_idv-1" target="BDC5LwxAOOQD8yFH_idv-4">
          <mxGeometry width="50" height="50" relative="1" as="geometry">
            <mxPoint x="390" y="450" as="sourcePoint" />
            <mxPoint x="440" y="400" as="targetPoint" />
          </mxGeometry>
        </mxCell>
        <mxCell id="BDC5LwxAOOQD8yFH_idv-6" value="ResponseType :OID" style="html=1;dashed=0;whiteSpace=wrap;shape=mxgraph.dfd.start" vertex="1" parent="1">
          <mxGeometry x="330" y="150" width="146" height="30" as="geometry" />
        </mxCell>
        <mxCell id="BDC5LwxAOOQD8yFH_idv-7" value="" style="endArrow=classic;html=1;rounded=0;entryX=0.5;entryY=0.5;entryDx=0;entryDy=-15;entryPerimeter=0;" edge="1" parent="1" source="BDC5LwxAOOQD8yFH_idv-4" target="BDC5LwxAOOQD8yFH_idv-6">
          <mxGeometry width="50" height="50" relative="1" as="geometry">
            <mxPoint x="390" y="450" as="sourcePoint" />
            <mxPoint x="440" y="400" as="targetPoint" />
          </mxGeometry>
        </mxCell>
        <mxCell id="BDC5LwxAOOQD8yFH_idv-8" value="&lt;pre class=&quot;newpage&quot;&gt;response :OCTET STRING&lt;/pre&gt;" style="html=1;dashed=0;whiteSpace=wrap;shape=mxgraph.dfd.start" vertex="1" parent="1">
          <mxGeometry x="490" y="150" width="180" height="30" as="geometry" />
        </mxCell>
        <mxCell id="BDC5LwxAOOQD8yFH_idv-9" value="" style="endArrow=classic;html=1;rounded=0;entryX=0.518;entryY=-0.017;entryDx=0;entryDy=0;entryPerimeter=0;" edge="1" parent="1" source="BDC5LwxAOOQD8yFH_idv-4" target="BDC5LwxAOOQD8yFH_idv-8">
          <mxGeometry width="50" height="50" relative="1" as="geometry">
            <mxPoint x="390" y="450" as="sourcePoint" />
            <mxPoint x="440" y="400" as="targetPoint" />
          </mxGeometry>
        </mxCell>
        <mxCell id="BDC5LwxAOOQD8yFH_idv-10" value="Parse" style="endArrow=open;endSize=12;dashed=1;html=1;rounded=0;exitX=0.5;exitY=0.5;exitDx=0;exitDy=15;exitPerimeter=0;entryX=0.5;entryY=0.5;entryDx=0;entryDy=-15;entryPerimeter=0;" edge="1" parent="1" source="BDC5LwxAOOQD8yFH_idv-8" target="BDC5LwxAOOQD8yFH_idv-11">
          <mxGeometry width="160" relative="1" as="geometry">
            <mxPoint x="530" y="310" as="sourcePoint" />
            <mxPoint x="450" y="280" as="targetPoint" />
          </mxGeometry>
        </mxCell>
        <mxCell id="BDC5LwxAOOQD8yFH_idv-11" value="&lt;pre class=&quot;newpage&quot;&gt;BasicOCSPResponse : SEQUENCE&lt;/pre&gt;" style="html=1;dashed=0;whiteSpace=wrap;shape=mxgraph.dfd.start" vertex="1" parent="1">
          <mxGeometry x="334" y="250" width="227" height="30" as="geometry" />
        </mxCell>
        <mxCell id="BDC5LwxAOOQD8yFH_idv-12" value="&lt;pre class=&quot;newpage&quot;&gt;ResponseData :SEQ&lt;/pre&gt;" style="html=1;dashed=0;whiteSpace=wrap;shape=mxgraph.dfd.start" vertex="1" parent="1">
          <mxGeometry x="248" y="410" width="166" height="30" as="geometry" />
        </mxCell>
        <mxCell id="BDC5LwxAOOQD8yFH_idv-13" value="" style="endArrow=classic;html=1;rounded=0;exitX=0.25;exitY=1;exitDx=0;exitDy=0;exitPerimeter=0;entryX=0.5;entryY=0.5;entryDx=0;entryDy=-15;entryPerimeter=0;" edge="1" parent="1" source="BDC5LwxAOOQD8yFH_idv-11" target="BDC5LwxAOOQD8yFH_idv-12">
          <mxGeometry width="50" height="50" relative="1" as="geometry">
            <mxPoint x="620" y="390" as="sourcePoint" />
            <mxPoint x="670" y="340" as="targetPoint" />
          </mxGeometry>
        </mxCell>
        <mxCell id="BDC5LwxAOOQD8yFH_idv-14" value="&lt;pre class=&quot;newpage&quot;&gt;signatureAlgorithm :OID&lt;/pre&gt;" style="html=1;dashed=0;whiteSpace=wrap;shape=mxgraph.dfd.start" vertex="1" parent="1">
          <mxGeometry x="140" y="320" width="200" height="30" as="geometry" />
        </mxCell>
        <mxCell id="BDC5LwxAOOQD8yFH_idv-15" value="" style="endArrow=classic;html=1;rounded=0;exitX=0.25;exitY=1;exitDx=0;exitDy=0;exitPerimeter=0;entryX=0.458;entryY=-0.028;entryDx=0;entryDy=0;entryPerimeter=0;" edge="1" parent="1" source="BDC5LwxAOOQD8yFH_idv-11" target="BDC5LwxAOOQD8yFH_idv-14">
          <mxGeometry width="50" height="50" relative="1" as="geometry">
            <mxPoint x="620" y="390" as="sourcePoint" />
            <mxPoint x="670" y="340" as="targetPoint" />
          </mxGeometry>
        </mxCell>
        <mxCell id="BDC5LwxAOOQD8yFH_idv-16" value="&lt;pre class=&quot;newpage&quot;&gt;signature :BIT STRING&lt;/pre&gt;" style="html=1;dashed=0;whiteSpace=wrap;shape=mxgraph.dfd.start" vertex="1" parent="1">
          <mxGeometry x="390" y="320" width="170" height="30" as="geometry" />
        </mxCell>
        <mxCell id="BDC5LwxAOOQD8yFH_idv-17" value="" style="endArrow=classic;html=1;rounded=0;exitX=0.5;exitY=0.5;exitDx=0;exitDy=15;exitPerimeter=0;entryX=0.37;entryY=-0.083;entryDx=0;entryDy=0;entryPerimeter=0;" edge="1" parent="1" source="BDC5LwxAOOQD8yFH_idv-11" target="BDC5LwxAOOQD8yFH_idv-16">
          <mxGeometry width="50" height="50" relative="1" as="geometry">
            <mxPoint x="620" y="390" as="sourcePoint" />
            <mxPoint x="670" y="340" as="targetPoint" />
          </mxGeometry>
        </mxCell>
        <mxCell id="BDC5LwxAOOQD8yFH_idv-18" value="&lt;pre class=&quot;newpage&quot;&gt;certs:&lt;/pre&gt;&lt;pre style=&quot;font-size: 8px;&quot; class=&quot;newpage&quot;&gt;EXPLICIT SEQUENCE OF Certificate&lt;/pre&gt;" style="html=1;dashed=0;whiteSpace=wrap;shape=mxgraph.dfd.start" vertex="1" parent="1">
          <mxGeometry x="587" y="310" width="193" height="50" as="geometry" />
        </mxCell>
        <mxCell id="BDC5LwxAOOQD8yFH_idv-19" value="" style="endArrow=classic;html=1;rounded=0;exitX=0.72;exitY=1;exitDx=0;exitDy=0;exitPerimeter=0;entryX=0.469;entryY=0;entryDx=0;entryDy=0;entryPerimeter=0;" edge="1" parent="1" source="BDC5LwxAOOQD8yFH_idv-11" target="BDC5LwxAOOQD8yFH_idv-18">
          <mxGeometry width="50" height="50" relative="1" as="geometry">
            <mxPoint x="600" y="390" as="sourcePoint" />
            <mxPoint x="650" y="340" as="targetPoint" />
          </mxGeometry>
        </mxCell>
        <mxCell id="BDC5LwxAOOQD8yFH_idv-21" value="Version: &lt;font style=&quot;font-size: 9px;&quot;&gt;EXPLICIT Version&lt;/font&gt;" style="html=1;dashed=0;whiteSpace=wrap;shape=mxgraph.dfd.start" vertex="1" parent="1">
          <mxGeometry x="-20" y="450" width="110" height="60" as="geometry" />
        </mxCell>
        <mxCell id="BDC5LwxAOOQD8yFH_idv-22" value="" style="endArrow=classic;html=1;rounded=0;exitX=0.449;exitY=1.028;exitDx=0;exitDy=0;exitPerimeter=0;entryX=0.5;entryY=0.5;entryDx=0;entryDy=-30;entryPerimeter=0;" edge="1" parent="1" source="BDC5LwxAOOQD8yFH_idv-12" target="BDC5LwxAOOQD8yFH_idv-21">
          <mxGeometry width="50" height="50" relative="1" as="geometry">
            <mxPoint x="530" y="400" as="sourcePoint" />
            <mxPoint x="580" y="350" as="targetPoint" />
          </mxGeometry>
        </mxCell>
        <mxCell id="BDC5LwxAOOQD8yFH_idv-23" value="&lt;pre style=&quot;font-size: 10px;&quot; class=&quot;newpage&quot;&gt;ResponderID &lt;br&gt;:CHOICE&lt;/pre&gt;" style="html=1;dashed=0;whiteSpace=wrap;shape=mxgraph.dfd.start" vertex="1" parent="1">
          <mxGeometry x="120" y="490" width="100" height="35" as="geometry" />
        </mxCell>
        <mxCell id="BDC5LwxAOOQD8yFH_idv-24" value="" style="endArrow=classic;html=1;rounded=0;entryX=0.5;entryY=0.5;entryDx=0;entryDy=-17.5;entryPerimeter=0;" edge="1" parent="1" target="BDC5LwxAOOQD8yFH_idv-23">
          <mxGeometry width="50" height="50" relative="1" as="geometry">
            <mxPoint x="330" y="440" as="sourcePoint" />
            <mxPoint x="580" y="350" as="targetPoint" />
          </mxGeometry>
        </mxCell>
        <mxCell id="BDC5LwxAOOQD8yFH_idv-25" value="&lt;pre class=&quot;newpage&quot;&gt;producedAt &lt;br&gt;:GeneralizedTime&lt;/pre&gt;" style="html=1;dashed=0;whiteSpace=wrap;shape=mxgraph.dfd.start" vertex="1" parent="1">
          <mxGeometry x="230" y="520" width="146" height="30" as="geometry" />
        </mxCell>
        <mxCell id="BDC5LwxAOOQD8yFH_idv-26" value="" style="endArrow=classic;html=1;rounded=0;exitX=0.5;exitY=0.5;exitDx=0;exitDy=15;exitPerimeter=0;entryX=0.75;entryY=0;entryDx=0;entryDy=0;entryPerimeter=0;" edge="1" parent="1" source="BDC5LwxAOOQD8yFH_idv-12" target="BDC5LwxAOOQD8yFH_idv-25">
          <mxGeometry width="50" height="50" relative="1" as="geometry">
            <mxPoint x="540" y="370" as="sourcePoint" />
            <mxPoint x="590" y="320" as="targetPoint" />
          </mxGeometry>
        </mxCell>
        <mxCell id="BDC5LwxAOOQD8yFH_idv-27" value="&lt;pre class=&quot;newpage&quot;&gt;responses:&lt;br&gt;SEQUENCE OF SingleResponse&lt;br&gt;&lt;/pre&gt;" style="html=1;dashed=0;whiteSpace=wrap;shape=mxgraph.dfd.start" vertex="1" parent="1">
          <mxGeometry x="280" y="570" width="220" height="40" as="geometry" />
        </mxCell>
        <mxCell id="BDC5LwxAOOQD8yFH_idv-28" value="" style="endArrow=classic;html=1;rounded=0;exitX=0.5;exitY=0.5;exitDx=0;exitDy=15;exitPerimeter=0;entryX=0.72;entryY=-0.021;entryDx=0;entryDy=0;entryPerimeter=0;" edge="1" parent="1" source="BDC5LwxAOOQD8yFH_idv-12" target="BDC5LwxAOOQD8yFH_idv-27">
          <mxGeometry width="50" height="50" relative="1" as="geometry">
            <mxPoint x="540" y="400" as="sourcePoint" />
            <mxPoint x="590" y="350" as="targetPoint" />
          </mxGeometry>
        </mxCell>
        <mxCell id="BDC5LwxAOOQD8yFH_idv-29" value="&lt;pre class=&quot;newpage&quot;&gt;responseExtensions &lt;br&gt;:OPTIONAL Extensions&lt;/pre&gt;" style="html=1;dashed=0;whiteSpace=wrap;shape=mxgraph.dfd.start" vertex="1" parent="1">
          <mxGeometry x="450" y="460" width="180" height="30" as="geometry" />
        </mxCell>
        <mxCell id="BDC5LwxAOOQD8yFH_idv-30" value="" style="endArrow=classic;html=1;rounded=0;exitX=0.5;exitY=0.5;exitDx=0;exitDy=15;exitPerimeter=0;entryX=0.5;entryY=0.5;entryDx=0;entryDy=-15;entryPerimeter=0;" edge="1" parent="1" source="BDC5LwxAOOQD8yFH_idv-12" target="BDC5LwxAOOQD8yFH_idv-29">
          <mxGeometry width="50" height="50" relative="1" as="geometry">
            <mxPoint x="540" y="370" as="sourcePoint" />
            <mxPoint x="590" y="320" as="targetPoint" />
          </mxGeometry>
        </mxCell>
        <mxCell id="BDC5LwxAOOQD8yFH_idv-31" value="&lt;pre class=&quot;newpage&quot;&gt;SingleResponse :SEQUENCE&lt;/pre&gt;" style="html=1;dashed=0;whiteSpace=wrap;shape=mxgraph.dfd.start" vertex="1" parent="1">
          <mxGeometry x="290" y="660" width="210" height="30" as="geometry" />
        </mxCell>
        <mxCell id="BDC5LwxAOOQD8yFH_idv-32" value="" style="endArrow=classic;html=1;rounded=0;exitX=0.5;exitY=0.5;exitDx=0;exitDy=20;exitPerimeter=0;entryX=0.5;entryY=0.5;entryDx=0;entryDy=-15;entryPerimeter=0;" edge="1" parent="1" source="BDC5LwxAOOQD8yFH_idv-27" target="BDC5LwxAOOQD8yFH_idv-31">
          <mxGeometry width="50" height="50" relative="1" as="geometry">
            <mxPoint x="660" y="610" as="sourcePoint" />
            <mxPoint x="710" y="560" as="targetPoint" />
          </mxGeometry>
        </mxCell>
        <mxCell id="BDC5LwxAOOQD8yFH_idv-33" value="&lt;pre class=&quot;newpage&quot;&gt;certID:CertID&lt;/pre&gt;" style="html=1;dashed=0;whiteSpace=wrap;shape=mxgraph.dfd.start" vertex="1" parent="1">
          <mxGeometry x="140" y="740" width="127" height="30" as="geometry" />
        </mxCell>
        <mxCell id="BDC5LwxAOOQD8yFH_idv-34" value="" style="endArrow=classic;html=1;rounded=0;exitX=0.434;exitY=1.057;exitDx=0;exitDy=0;exitPerimeter=0;entryX=0.685;entryY=0.033;entryDx=0;entryDy=0;entryPerimeter=0;" edge="1" parent="1" source="BDC5LwxAOOQD8yFH_idv-31" target="BDC5LwxAOOQD8yFH_idv-33">
          <mxGeometry width="50" height="50" relative="1" as="geometry">
            <mxPoint x="600" y="500" as="sourcePoint" />
            <mxPoint x="650" y="450" as="targetPoint" />
          </mxGeometry>
        </mxCell>
        <mxCell id="BDC5LwxAOOQD8yFH_idv-35" value="&lt;pre class=&quot;newpage&quot;&gt;certStatus&lt;/pre&gt;" style="html=1;dashed=0;whiteSpace=wrap;shape=mxgraph.dfd.start" vertex="1" parent="1">
          <mxGeometry x="310" y="750" width="80" height="30" as="geometry" />
        </mxCell>
        <mxCell id="BDC5LwxAOOQD8yFH_idv-36" value="" style="endArrow=classic;html=1;rounded=0;entryX=0.5;entryY=0.5;entryDx=0;entryDy=-15;entryPerimeter=0;" edge="1" parent="1" source="BDC5LwxAOOQD8yFH_idv-31" target="BDC5LwxAOOQD8yFH_idv-35">
          <mxGeometry width="50" height="50" relative="1" as="geometry">
            <mxPoint x="600" y="530" as="sourcePoint" />
            <mxPoint x="650" y="480" as="targetPoint" />
          </mxGeometry>
        </mxCell>
        <mxCell id="BDC5LwxAOOQD8yFH_idv-37" value="&lt;pre class=&quot;newpage&quot;&gt;thisUpdate&lt;br&gt;:GeneralizedTime &lt;/pre&gt;" style="html=1;dashed=0;whiteSpace=wrap;shape=mxgraph.dfd.start" vertex="1" parent="1">
          <mxGeometry x="414" y="750" width="150" height="30" as="geometry" />
        </mxCell>
        <mxCell id="BDC5LwxAOOQD8yFH_idv-38" value="" style="endArrow=classic;html=1;rounded=0;exitX=0.5;exitY=0.5;exitDx=0;exitDy=15;exitPerimeter=0;" edge="1" parent="1" source="BDC5LwxAOOQD8yFH_idv-31" target="BDC5LwxAOOQD8yFH_idv-37">
          <mxGeometry width="50" height="50" relative="1" as="geometry">
            <mxPoint x="600" y="590" as="sourcePoint" />
            <mxPoint x="650" y="540" as="targetPoint" />
          </mxGeometry>
        </mxCell>
        <mxCell id="BDC5LwxAOOQD8yFH_idv-39" value="&lt;pre class=&quot;newpage&quot;&gt;nextUpdate&lt;br&gt;GeneralizedTime OPTIONAL&lt;br&gt;&lt;/pre&gt;" style="html=1;dashed=0;whiteSpace=wrap;shape=mxgraph.dfd.start" vertex="1" parent="1">
          <mxGeometry x="587" y="750" width="173" height="30" as="geometry" />
        </mxCell>
        <mxCell id="BDC5LwxAOOQD8yFH_idv-40" value="" style="endArrow=classic;html=1;rounded=0;entryX=0.5;entryY=0.5;entryDx=0;entryDy=-15;entryPerimeter=0;exitX=0.5;exitY=0.5;exitDx=0;exitDy=15;exitPerimeter=0;" edge="1" parent="1" source="BDC5LwxAOOQD8yFH_idv-31" target="BDC5LwxAOOQD8yFH_idv-39">
          <mxGeometry width="50" height="50" relative="1" as="geometry">
            <mxPoint x="600" y="470" as="sourcePoint" />
            <mxPoint x="650" y="420" as="targetPoint" />
          </mxGeometry>
        </mxCell>
        <mxCell id="BDC5LwxAOOQD8yFH_idv-41" value="&lt;pre class=&quot;newpage&quot;&gt;singleExtensions&lt;/pre&gt;&lt;font style=&quot;font-size: 9px;&quot;&gt;:EXPLICIT Extensions OPTIONAL&lt;/font&gt;&lt;div&gt;&lt;br&gt;&lt;/div&gt;" style="html=1;dashed=0;whiteSpace=wrap;shape=mxgraph.dfd.start" vertex="1" parent="1">
          <mxGeometry x="610" y="650" width="200" height="50" as="geometry" />
        </mxCell>
        <mxCell id="BDC5LwxAOOQD8yFH_idv-42" value="" style="endArrow=classic;html=1;rounded=0;exitX=1;exitY=0.5;exitDx=0;exitDy=0;exitPerimeter=0;entryX=0;entryY=0.5;entryDx=0;entryDy=0;entryPerimeter=0;" edge="1" parent="1" source="BDC5LwxAOOQD8yFH_idv-31" target="BDC5LwxAOOQD8yFH_idv-41">
          <mxGeometry width="50" height="50" relative="1" as="geometry">
            <mxPoint x="600" y="560" as="sourcePoint" />
            <mxPoint x="600" y="670" as="targetPoint" />
          </mxGeometry>
        </mxCell>
        <mxCell id="BDC5LwxAOOQD8yFH_idv-43" value="" style="endArrow=classic;html=1;rounded=0;exitX=0.5;exitY=0.5;exitDx=0;exitDy=15;exitPerimeter=0;" edge="1" parent="1" source="BDC5LwxAOOQD8yFH_idv-35" target="BDC5LwxAOOQD8yFH_idv-44">
          <mxGeometry width="50" height="50" relative="1" as="geometry">
            <mxPoint x="600" y="680" as="sourcePoint" />
            <mxPoint x="350" y="820" as="targetPoint" />
          </mxGeometry>
        </mxCell>
        <mxCell id="BDC5LwxAOOQD8yFH_idv-44" value="CHOICE" style="shape=rhombus;html=1;dashed=0;whiteSpace=wrap;perimeter=rhombusPerimeter;" vertex="1" parent="1">
          <mxGeometry x="320" y="795" width="60" height="50" as="geometry" />
        </mxCell>
        <mxCell id="BDC5LwxAOOQD8yFH_idv-45" value="" style="endArrow=classic;html=1;rounded=0;exitX=0;exitY=0.5;exitDx=0;exitDy=0;" edge="1" parent="1" source="BDC5LwxAOOQD8yFH_idv-44">
          <mxGeometry width="50" height="50" relative="1" as="geometry">
            <mxPoint x="600" y="680" as="sourcePoint" />
            <mxPoint x="300" y="880" as="targetPoint" />
          </mxGeometry>
        </mxCell>
        <mxCell id="BDC5LwxAOOQD8yFH_idv-47" value="&lt;pre class=&quot;newpage&quot;&gt;good&lt;br&gt;&lt;font style=&quot;font-size: 9px;&quot;&gt;:IMPLICIT NULL&lt;/font&gt;&lt;/pre&gt;" style="html=1;dashed=0;whiteSpace=wrap;shape=mxgraph.dfd.start" vertex="1" parent="1">
          <mxGeometry x="260" y="880" width="80" height="40" as="geometry" />
        </mxCell>
        <mxCell id="BDC5LwxAOOQD8yFH_idv-48" value="&lt;pre class=&quot;newpage&quot;&gt;RevokedInfo&lt;/pre&gt;" style="html=1;dashed=0;whiteSpace=wrap;shape=mxgraph.dfd.start" vertex="1" parent="1">
          <mxGeometry x="320" y="930" width="90" height="30" as="geometry" />
        </mxCell>
        <mxCell id="BDC5LwxAOOQD8yFH_idv-49" value="" style="endArrow=classic;html=1;rounded=0;exitX=0.5;exitY=1;exitDx=0;exitDy=0;entryX=0.5;entryY=0.5;entryDx=0;entryDy=-15;entryPerimeter=0;" edge="1" parent="1" source="BDC5LwxAOOQD8yFH_idv-44" target="BDC5LwxAOOQD8yFH_idv-48">
          <mxGeometry width="50" height="50" relative="1" as="geometry">
            <mxPoint x="600" y="680" as="sourcePoint" />
            <mxPoint x="650" y="630" as="targetPoint" />
          </mxGeometry>
        </mxCell>
        <mxCell id="BDC5LwxAOOQD8yFH_idv-50" value="&lt;pre class=&quot;newpage&quot;&gt;UnknownInfo&lt;/pre&gt;" style="html=1;dashed=0;whiteSpace=wrap;shape=mxgraph.dfd.start" vertex="1" parent="1">
          <mxGeometry x="380" y="880" width="100" height="30" as="geometry" />
        </mxCell>
        <mxCell id="BDC5LwxAOOQD8yFH_idv-51" value="" style="endArrow=classic;html=1;rounded=0;exitX=1;exitY=0.5;exitDx=0;exitDy=0;entryX=0.5;entryY=0.5;entryDx=0;entryDy=-15;entryPerimeter=0;" edge="1" parent="1" source="BDC5LwxAOOQD8yFH_idv-44" target="BDC5LwxAOOQD8yFH_idv-50">
          <mxGeometry width="50" height="50" relative="1" as="geometry">
            <mxPoint x="600" y="680" as="sourcePoint" />
            <mxPoint x="650" y="630" as="targetPoint" />
          </mxGeometry>
        </mxCell>
        <mxCell id="BDC5LwxAOOQD8yFH_idv-52" value="&lt;pre class=&quot;newpage&quot;&gt;hashAlgorithm &lt;br&gt;:OID&lt;/pre&gt;" style="html=1;dashed=0;whiteSpace=wrap;shape=mxgraph.dfd.start" vertex="1" parent="1">
          <mxGeometry x="10" y="780" width="110" height="30" as="geometry" />
        </mxCell>
        <mxCell id="BDC5LwxAOOQD8yFH_idv-53" value="" style="endArrow=classic;html=1;rounded=0;exitX=0.5;exitY=0.5;exitDx=0;exitDy=15;exitPerimeter=0;entryX=0.5;entryY=0.5;entryDx=0;entryDy=-15;entryPerimeter=0;" edge="1" parent="1" source="BDC5LwxAOOQD8yFH_idv-33" target="BDC5LwxAOOQD8yFH_idv-52">
          <mxGeometry width="50" height="50" relative="1" as="geometry">
            <mxPoint x="600" y="650" as="sourcePoint" />
            <mxPoint x="650" y="600" as="targetPoint" />
          </mxGeometry>
        </mxCell>
        <mxCell id="BDC5LwxAOOQD8yFH_idv-55" value="&lt;pre class=&quot;newpage&quot;&gt;issuerNameHash&lt;br&gt;:OCTET STRING&lt;br&gt;&lt;/pre&gt;" style="html=1;dashed=0;whiteSpace=wrap;shape=mxgraph.dfd.start" vertex="1" parent="1">
          <mxGeometry x="-10" y="850" width="120" height="50" as="geometry" />
        </mxCell>
        <mxCell id="BDC5LwxAOOQD8yFH_idv-56" value="" style="endArrow=classic;html=1;rounded=0;exitX=0.5;exitY=0.5;exitDx=0;exitDy=15;exitPerimeter=0;entryX=0.567;entryY=0.04;entryDx=0;entryDy=0;entryPerimeter=0;" edge="1" parent="1" source="BDC5LwxAOOQD8yFH_idv-33" target="BDC5LwxAOOQD8yFH_idv-55">
          <mxGeometry width="50" height="50" relative="1" as="geometry">
            <mxPoint x="570" y="770" as="sourcePoint" />
            <mxPoint x="620" y="720" as="targetPoint" />
          </mxGeometry>
        </mxCell>
        <mxCell id="BDC5LwxAOOQD8yFH_idv-57" value="&lt;pre class=&quot;newpage&quot;&gt;issuerKeyHash&lt;br&gt;: OCTET STRING&lt;br&gt;&lt;/pre&gt;" style="html=1;dashed=0;whiteSpace=wrap;shape=mxgraph.dfd.start" vertex="1" parent="1">
          <mxGeometry x="40" y="920" width="120" height="30" as="geometry" />
        </mxCell>
        <mxCell id="BDC5LwxAOOQD8yFH_idv-58" value="" style="endArrow=classic;html=1;rounded=0;exitX=0.5;exitY=0.5;exitDx=0;exitDy=15;exitPerimeter=0;entryX=0.667;entryY=-0.067;entryDx=0;entryDy=0;entryPerimeter=0;" edge="1" parent="1" source="BDC5LwxAOOQD8yFH_idv-33" target="BDC5LwxAOOQD8yFH_idv-57">
          <mxGeometry width="50" height="50" relative="1" as="geometry">
            <mxPoint x="570" y="770" as="sourcePoint" />
            <mxPoint x="620" y="720" as="targetPoint" />
          </mxGeometry>
        </mxCell>
        <mxCell id="BDC5LwxAOOQD8yFH_idv-59" value="&lt;pre class=&quot;newpage&quot;&gt;serialNumber&lt;/pre&gt;" style="html=1;dashed=0;whiteSpace=wrap;shape=mxgraph.dfd.start" vertex="1" parent="1">
          <mxGeometry x="130" y="960" width="110" height="30" as="geometry" />
        </mxCell>
        <mxCell id="BDC5LwxAOOQD8yFH_idv-60" value="" style="endArrow=classic;html=1;rounded=0;exitX=0.5;exitY=0.5;exitDx=0;exitDy=15;exitPerimeter=0;entryX=0.627;entryY=0.033;entryDx=0;entryDy=0;entryPerimeter=0;" edge="1" parent="1" source="BDC5LwxAOOQD8yFH_idv-33" target="BDC5LwxAOOQD8yFH_idv-59">
          <mxGeometry width="50" height="50" relative="1" as="geometry">
            <mxPoint x="570" y="770" as="sourcePoint" />
            <mxPoint x="620" y="720" as="targetPoint" />
          </mxGeometry>
        </mxCell>
      </root>
    </mxGraphModel>
  </diagram>
</mxfile>
